<svg id="Layer_1" data-name="Layer 1" xmlns="http://www.w3.org/2000/svg" viewBox="0 0 163.83 53.17"><defs><style>.cls-1,.cls-7,.cls-9{fill:none;stroke-miterlimit:2.61;}.cls-1{stroke:#f58220;}.cls-1,.cls-7{stroke-width:0.5px;}.cls-2,.cls-4{fill:#bd1b21;}.cls-12,.cls-13,.cls-3,.cls-5,.cls-8{fill:#231f20;}.cls-10,.cls-4,.cls-6,.cls-8{fill-rule:evenodd;}.cls-5{font-size:6.13px;}.cls-12,.cls-13,.cls-5{font-family:Arial-BoldMT, Arial;font-weight:700;}.cls-11,.cls-6{fill:#fff;}.cls-7,.cls-9{stroke:#231f20;}.cls-9{stroke-width:0.5px;}.cls-10{fill:#f58220;}.cls-12{font-size:4.63px;}.cls-13{font-size:5px;}</style></defs><title>Graphic Era (deemed to be university)</title><line class="cls-1" x1="160.82" y1="52.92" x2="43.97" y2="52.92"/><path class="cls-2" d="M44,16.45c0,2.83,1.81,6.67,5.6,6.67h.24c.43,0,1-.07,1.55-.07,1.1,0,2.39.07,3.29.07,1.15,0,2.46-.41,2.46-.83a.51.51,0,0,0-.07-.23c-.36-.3-1-.59-1-1.2V16.75a1.61,1.61,0,0,1,1-1.52c.21-.1.38-.29.38-.4s-.26-.33-.91-.33a11.68,11.68,0,0,1-2,.14c-.5,0-1.31-.08-1.91-.08-.43,0-.81,0-.86.23s0,.11,0,.15c0,.61,1.24.67,1.24,1.51v2.6c0,.46,0,.75-.5.9a9.08,9.08,0,0,1-1.84.27c-3.08,0-4.17-2.71-4.17-5.13.16-3.5,1.35-4.55,4.65-4.84.66,0,1.69,0,1.69.58s-.69.76-1.36,1.2-3.79,1.56-3.79,2.76a1.11,1.11,0,0,0,1.24,1.06c.76,0,1.14-.43,1.14-.87a.86.86,0,0,0-.14-.48c0-.05-.07-.15-.07-.19,0-.8,2.48-1.58,4.22-2.42.69-.3,2-.76,2-1.81S53.86,9,52.43,9h-.9c-6,0-7.56,3.5-7.56,7.45"/><path class="cls-2" d="M59.37,21.17c0,.46-.5.61-.85.76a.54.54,0,0,0-.24.42.58.58,0,0,0,.4.49,2.57,2.57,0,0,0,1,.19c.36,0,.78,0,1.19,0s.86,0,1.24,0a3.55,3.55,0,0,0,.64,0c.48-.07.86-.4.86-.68a.47.47,0,0,0-.31-.38c-.71-.3-.88-.3-1-.91V15.54c.34,0,1.15-.38,1.7-.38a.52.52,0,0,1,.57.38v.11c0,.46-.57,1.18-.57,1.58s.31.53,1.07.57c0,0-.12-.06-.12-.1s.6-.28,1.15-.49a2.62,2.62,0,0,0,1.36-2.28,1.88,1.88,0,0,0-2.06-2.15c-1.19,0-2.6,1.71-3.1,1.71,0-.47.5-.62.86-.91a.69.69,0,0,0,.19-.34c0-.15-.19-.32-.71-.32H59c-.6,0-.81.19-.81.34s.21.38.45.47c.53.14.69.44.69,1Z"/><path class="cls-2" d="M76.45,20c-.86,0-2,.46-2.74.46-1.58-.17-1.91-.76-1.91-1.66,0-1.1,2.27-2,3.46-2.45a1,1,0,0,0,.71-.84c0-.34-.33-.68-1-.68h-.22c-.55,0-1.45.15-2,.15a1.57,1.57,0,0,1-.71-.15c-.15-.1-.27-.23-.27-.29,0-.38,1.34-.62,2.17-.62,1.89,0,2.58.62,2.58,2Zm-7.89.15c0,1.56,1.24,2.91,3.36,2.91l.38,0c1.07,0,1.93-.15,2.6-.15s1.88.15,2.91.15c1.67,0,2.48-.34,2.48-.72s-.36-.57-.91-.78V16.13c0-2.4-1.24-3.21-2.6-3.21-.69.05-1.31.09-1.88.09-1.1,0-2.12-.09-3.27-.09-.36,0-2.57.17-2.57,1.42s1.24,1.54,2.43,1.54a10.14,10.14,0,0,0,1.72-.19h.28c.27,0,.43.1.43.19s-.12.23-.38.25C70.94,16.89,68.56,17.94,68.56,20.1Z"/><path class="cls-2" d="M82.56,24.79c0,.3-.34.3-.86.62a.57.57,0,0,0-.34.41c0,.19.27.42.5.5a2.35,2.35,0,0,0,1.08.21c.43,0,.9-.06,1.14-.06s.79,0,1.22,0a3.94,3.94,0,0,0,.67,0c.43-.08.74-.42.74-.65s-.15-.3-.41-.41-.83-.32-.83-.62V22.37a1.5,1.5,0,0,1-.6-1.24,2.06,2.06,0,0,1,.6-1.47V15.41a4.65,4.65,0,0,1,2.76-1.05,2.6,2.6,0,0,1,2.55,2.86c0,1.68-.66,3-2.38,3.19-.86,0-.86-.17-1-.6a1.7,1.7,0,0,0-1.74-.91,1,1,0,0,1,.12.44c0,.55-.64,1.07-.64,1.52,0,1.35,1,2.26,3.12,2.26h.22c2.43,0,4.6-2.37,4.6-5.31-.17-3.45-1.91-5-4.32-5-1.86,0-2.76,1.26-3.43,1.58,0-.32.33-.61.67-.76a.26.26,0,0,0,.16-.27c0-.15-.16-.41-.66-.41H82.39c-.64,0-1,.3-1,.49a.5.5,0,0,0,.29.34c.52.29.86.29.86.76Z"/><path class="cls-2" d="M95.58,21.47c-.67.44-1.19.59-1.19,1.05,0,.3.52.6.85.6.12,0,.27,0,.34,0,.38,0,.69-.19,1.36-.19s1.07.19,1.4.19c.1,0,.22,0,.31,0,.51-.15,1.08-.45,1.08-.75,0-.46-1.08-.46-1.24-1.07V15.08a17.17,17.17,0,0,0,2.43-.45,1.44,1.44,0,0,1,1.36,1.5v5.34c-.33.44-1.19.44-1.19,1.05,0,.3.5.6,1.36.6.52,0,.86-.15,1.19-.15s.86,0,1.29,0a5.84,5.84,0,0,0,.81,0c.43,0,.64-.26.64-.45s-.38-.67-1.17-.9V15.08c0-1.65-1.74-2.16-2.93-2.16-1.88,0-2.72.95-3.79,1.25V10.52c.59-.15,1.29-.57,1.29-.82s-.31-.38-1.13-.38H95.24c-.76,0-1.07.21-1.07.4a.43.43,0,0,0,.38.33l1,.47Z"/><path class="cls-2" d="M108.74,21.49a2.76,2.76,0,0,1-.86.59.49.49,0,0,0-.28.32c0,.21.45.52.81.59a2.55,2.55,0,0,0,.55,0c.38,0,.9,0,1.31,0s.86,0,1.24,0a3.66,3.66,0,0,0,.64,0c.48-.07.86-.34.86-.57s-.09-.26-.31-.34c-.38-.3-1-.44-1-.76V14.17c.89-.19,1.31-.52,1.31-.74s-.47-.5-1.14-.5h-3.58c-.47,0-.78.23-.78.42s.52.67,1.28.82Zm-.16-10.82c0,.76.86.9,1.69.9s1.55-.29,1.55-.9c0-.91-1-.91-1.55-.91C108.91,9.76,108.58,10.05,108.58,10.67Z"/><path class="cls-2" d="M114,18.45c0,1.5.67,4.07,3.08,4.67.12,0,.33,0,.5,0,.77,0,1.74-.19,2.27-.19s1.19.15,1.88.15c2.39,0,3.1-1.5,3.1-2.41s-.55-1.37-1.4-1.82c-.17.76-1,1.52-2.91,1.52s-4.18-.69-4.18-2.65c0,0,.05-.19.05-.26,0-1.81.69-3.77,3.12-3.77.77,0,1.7.42,1.7.82v.08a.42.42,0,0,1-.43.26c-.22,0-.55-.11-.93-.11a.86.86,0,0,0-.77.76.73.73,0,0,0,.43.59c.08-.19.19-.25.29-.25.31,0,.64.86,1.93.86a1.82,1.82,0,0,0,1.86-1.81c0-2.15-2.88-2.3-3.74-2.3-5.34.15-5.85,4.11-5.85,5.82"/><path class="cls-3" d="M128.23,20.24c-.12,1.14-2.43,1.42-2.43,2l0,0c.22.65,1.72.8,3.15.8.81,0,1.77,0,2.36,0,1.2,0,2.65.13,3.91.13,1.94,0,3.56-.32,3.63-2a1.44,1.44,0,0,0-1.19-1.64c-.34.9-1.58.9-2.6.9l-.88,0c-1.41,0-3.25-.14-3.25-1.24V16.3a2,2,0,0,1-1-1.44,2.61,2.61,0,0,1,1.17-1.76V10.83c.21-.58,1.05-.75,1.74-.75s1.88.17,1.88.75-2.38,1.66-3.24,2.41c-.55.49-1.07.93-1.07,1.54s.52,1.35,1.74,1.35a4.58,4.58,0,0,0,2.05-.44,1.89,1.89,0,0,1,.64-.15.67.67,0,0,1,.74.59,1.12,1.12,0,0,0,.84-1.2,1.72,1.72,0,0,0-1.91-1.35,5.21,5.21,0,0,0-2,.44,3.49,3.49,0,0,1-.39.13A.17.17,0,0,1,132,14c0-.1.19-.38.71-.59,1-.5,5.68-2.31,5.68-3.5,0-.59-.53-.93-2.77-.93h-6.37c-1.36,0-3.24.34-3.24.93.17.9,2.22.75,2.22,1.8Z"/><path class="cls-3" d="M140.92,21.17c0,.46-.5.61-.86.76a.54.54,0,0,0-.24.42.59.59,0,0,0,.41.49,2.52,2.52,0,0,0,1,.19c.36,0,.79,0,1.19,0s.86,0,1.24,0a3.71,3.71,0,0,0,.65,0c.47-.07.86-.4.86-.68a.49.49,0,0,0-.31-.38c-.72-.3-.89-.3-1-.91V15.54c.33,0,1.14-.38,1.69-.38.26,0,.53.11.57.38v.11c0,.46-.57,1.18-.57,1.58s.31.53,1.07.57c0,0-.12-.06-.12-.1s.6-.28,1.15-.49A2.62,2.62,0,0,0,149,14.93c0-1.2-.5-2.15-2-2.15-1.19,0-2.6,1.71-3.1,1.71,0-.47.5-.62.86-.91a.79.79,0,0,0,.19-.34c0-.15-.19-.32-.72-.32h-3.58c-.59,0-.81.19-.81.34s.22.38.46.47c.52.14.69.44.69,1Z"/><path class="cls-3" d="M158,20c-.85,0-2.05.46-2.74.46-1.57-.17-1.91-.76-1.91-1.66,0-1.1,2.27-2,3.46-2.45a1,1,0,0,0,.72-.84c0-.34-.34-.68-1-.68h-.21c-.55,0-1.46.15-2.05.15a1.58,1.58,0,0,1-.72-.15c-.14-.1-.26-.23-.26-.29,0-.38,1.33-.62,2.17-.62,1.88,0,2.57.62,2.57,2Zm-7.89.15c0,1.56,1.24,2.91,3.36,2.91.1,0,.31,0,.38,0,1.08,0,1.94-.15,2.6-.15s1.89.15,2.91.15c1.67,0,2.48-.34,2.48-.72s-.35-.57-.9-.78V16.13c0-2.4-1.24-3.21-2.6-3.21-.69.05-1.31.09-1.89.09-1.09,0-2.12-.09-3.26-.09-.36,0-2.58.17-2.58,1.42s1.24,1.54,2.43,1.54a10.14,10.14,0,0,0,1.72-.19H155c.26,0,.43.1.43.19s-.12.23-.39.25C152.48,16.89,150.1,17.94,150.1,20.1Z"/><path class="cls-4" d="M159.62,35.89l-.57-1.52-.55,1.52Zm1.52,1.62h-.9l-.35-.93h-1.65l-.34.93H157l1.6-4.1h.87Zm-6.51-1.73a.74.74,0,0,0-.17-.52.54.54,0,0,0-.41-.18.52.52,0,0,0-.42.19.73.73,0,0,0-.17.51Zm0,.79.78.14a1.33,1.33,0,0,1-.47.65,1.42,1.42,0,0,1-.82.23,1.31,1.31,0,0,1-1.14-.51,1.68,1.68,0,0,1-.3-1A1.6,1.6,0,0,1,153,34.9a1.25,1.25,0,0,1,1-.42,1.31,1.31,0,0,1,1.05.44,1.92,1.92,0,0,1,.36,1.34h-2a.77.77,0,0,0,.19.54.59.59,0,0,0,.45.2.52.52,0,0,0,.31-.1A.66.66,0,0,0,154.59,36.57ZM150,36a1.33,1.33,0,0,0,.13.69.59.59,0,0,0,.53.31.58.58,0,0,0,.46-.23,1.08,1.08,0,0,0,.19-.7,1.22,1.22,0,0,0-.18-.74.59.59,0,0,0-.47-.22.57.57,0,0,0-.47.22A1,1,0,0,0,150,36Zm2.1,1.54h-.73v-.43a1.29,1.29,0,0,1-.43.38,1,1,0,0,1-.5.13,1.13,1.13,0,0,1-.88-.42,2,2,0,0,1,0-2.3,1.17,1.17,0,0,1,.9-.39,1.12,1.12,0,0,1,.86.41V33.41h.79Zm-4.28-1.42a2.72,2.72,0,0,1-.48.12,1.75,1.75,0,0,0-.43.14.32.32,0,0,0-.15.28.38.38,0,0,0,.12.28.45.45,0,0,0,.32.12.63.63,0,0,0,.4-.14.45.45,0,0,0,.19-.26,1.51,1.51,0,0,0,0-.38Zm-1-.63-.71-.13a1.09,1.09,0,0,1,.41-.64,1.51,1.51,0,0,1,.87-.21,2,2,0,0,1,.79.12.76.76,0,0,1,.36.32,1.6,1.6,0,0,1,.1.7v.92a3.8,3.8,0,0,0,0,.58,1.85,1.85,0,0,0,.14.39H148a2.35,2.35,0,0,1-.07-.23.23.23,0,0,1,0-.09,1.68,1.68,0,0,1-.43.3,1.16,1.16,0,0,1-.49.1,1,1,0,0,1-.72-.25.82.82,0,0,1-.26-.63.84.84,0,0,1,.12-.45.8.8,0,0,1,.33-.3,2.71,2.71,0,0,1,.63-.18,4.27,4.27,0,0,0,.76-.2V35.5a.41.41,0,0,0-.11-.32.65.65,0,0,0-.42-.1.46.46,0,0,0-.52.38Zm-2.07,2h-.78v-3h.73V35a1.14,1.14,0,0,1,.33-.39.67.67,0,0,1,.34-.09,1.07,1.07,0,0,1,.52.14l-.24.69a.66.66,0,0,0-.37-.13.45.45,0,0,0-.28.09.57.57,0,0,0-.18.33,4.22,4.22,0,0,0-.07,1ZM141.41,36v-.7h1.78V37a2.19,2.19,0,0,1-.75.45,2.91,2.91,0,0,1-1,.19,2.21,2.21,0,0,1-1.12-.27,1.7,1.7,0,0,1-.72-.78,2.49,2.49,0,0,1-.24-1.09,2.34,2.34,0,0,1,.27-1.14,1.76,1.76,0,0,1,.78-.77,2.09,2.09,0,0,1,1-.2,1.94,1.94,0,0,1,1.2.32,1.45,1.45,0,0,1,.55.89l-.83.15a.84.84,0,0,0-.32-.48,1,1,0,0,0-.6-.17,1.11,1.11,0,0,0-.86.34,1.47,1.47,0,0,0-.32,1,1.64,1.64,0,0,0,.32,1.1,1.07,1.07,0,0,0,.85.37,1.66,1.66,0,0,0,.53-.1,2,2,0,0,0,.44-.25V36Zm-6.23-2.6v1.52a1.15,1.15,0,0,1,.91-.45,1.1,1.1,0,0,1,.49.1.72.72,0,0,1,.33.25.93.93,0,0,1,.16.35,4,4,0,0,1,0,.59v1.74h-.79V36a2.46,2.46,0,0,0,0-.6.45.45,0,0,0-.16-.2.54.54,0,0,0-.29-.07.68.68,0,0,0-.35.09.56.56,0,0,0-.23.29,1.69,1.69,0,0,0-.07.57v1.48h-.79v-4.1Zm-1.33,1.13v.62h-.54v1.21a2.82,2.82,0,0,0,0,.43.17.17,0,0,0,.07.1.28.28,0,0,0,.13,0,1,1,0,0,0,.32-.08l.06.61a1.49,1.49,0,0,1-.62.12,1.17,1.17,0,0,1-.38-.07.62.62,0,0,1-.25-.19.75.75,0,0,1-.11-.31c0-.09,0-.27,0-.55V35.16h-.36v-.62h.36V34l.78-.46v1Zm-2.95,3v-3h.79v3Zm0-3.37v-.73h.79v.73ZM127,37.51l-.94-3h.77l.56,2,.51-2h.76l.49,2,.57-2h.77l-.95,3h-.76l-.51-1.91-.5,1.91ZM123.34,36l.81.25a1.83,1.83,0,0,1-.62,1A1.92,1.92,0,0,1,121.1,37a2.13,2.13,0,0,1-.53-1.52,2.27,2.27,0,0,1,.53-1.6,1.84,1.84,0,0,1,1.39-.56,1.72,1.72,0,0,1,1.22.44,1.59,1.59,0,0,1,.42.76l-.82.19a.79.79,0,0,0-.3-.5.87.87,0,0,0-.56-.18,1,1,0,0,0-.74.32,1.62,1.62,0,0,0-.29,1.06,1.76,1.76,0,0,0,.28,1.11.92.92,0,0,0,.73.33.84.84,0,0,0,.57-.21A1.22,1.22,0,0,0,123.34,36Zm-4.58-.11-.57-1.52-.56,1.52Zm1.52,1.62h-.9l-.35-.93h-1.65l-.34.93h-.88l1.6-4.1h.87Zm-5.66-1.62-.57-1.52-.55,1.52Zm1.52,1.62h-.9l-.35-.93h-1.65l-.34.93H112l1.6-4.1h.87Zm-7.84,0v-4.1h.81l1.69,2.75V33.41h.76v4.1h-.83l-1.66-2.69v2.69Zm-5.16-3H104l.71,2.11.7-2.11h.81l-1,2.86-.19.52a2.11,2.11,0,0,1-.2.4.88.88,0,0,1-.21.22,1,1,0,0,1-.3.13,1.7,1.7,0,0,1-.41,0,2.12,2.12,0,0,1-.44,0l-.07-.61.33,0a.49.49,0,0,0,.41-.16,1,1,0,0,0,.2-.41ZM100.76,36a1.3,1.3,0,0,0,.14.68.64.64,0,0,0,.55.32.54.54,0,0,0,.44-.22,1.14,1.14,0,0,0,.18-.71,1.22,1.22,0,0,0-.18-.74.61.61,0,0,0-.94,0A1,1,0,0,0,100.76,36ZM100,37.51v-4.1h.79v1.48a1.12,1.12,0,0,1,.86-.41,1.17,1.17,0,0,1,.9.39,1.66,1.66,0,0,1,.35,1.13,1.75,1.75,0,0,1-.36,1.18,1.11,1.11,0,0,1-1.38.28,1.3,1.3,0,0,1-.43-.38v.43ZM95.56,36a1.33,1.33,0,0,0,.13.69.57.57,0,0,0,.53.31.59.59,0,0,0,.46-.23,1.46,1.46,0,0,0,0-1.44.57.57,0,0,0-.47-.22.6.6,0,0,0-.47.22A1.05,1.05,0,0,0,95.56,36Zm2.09,1.54h-.72v-.43a1.31,1.31,0,0,1-.44.38,1,1,0,0,1-.5.13,1.14,1.14,0,0,1-.88-.42,2,2,0,0,1,0-2.3,1.17,1.17,0,0,1,.9-.39,1.13,1.13,0,0,1,.87.41V33.41h.78ZM93.5,35.78a.74.74,0,0,0-.17-.52.54.54,0,0,0-.41-.18.52.52,0,0,0-.42.19.69.69,0,0,0-.17.51Zm0,.79.78.14a1.33,1.33,0,0,1-.47.65,1.42,1.42,0,0,1-.82.23,1.33,1.33,0,0,1-1.15-.51,1.74,1.74,0,0,1-.29-1,1.64,1.64,0,0,1,.38-1.15,1.29,1.29,0,0,1,1-.42,1.31,1.31,0,0,1,1,.44,2,2,0,0,1,.36,1.34h-2a.77.77,0,0,0,.19.54A.59.59,0,0,0,93,37a.55.55,0,0,0,.31-.1A.74.74,0,0,0,93.46,36.57Zm-2.27-2v.62h-.54v1.21a3.7,3.7,0,0,0,0,.43.19.19,0,0,0,.08.1.25.25,0,0,0,.13,0,1,1,0,0,0,.31-.08l.07.61a1.52,1.52,0,0,1-.62.12,1.12,1.12,0,0,1-.38-.07.55.55,0,0,1-.25-.19.75.75,0,0,1-.11-.31,3.12,3.12,0,0,1,0-.55V35.16H89.5v-.62h.36V34l.79-.46v1Zm-3,3v-3H89v3Zm0-3.37v-.73H89v.73ZM85.37,36a1.33,1.33,0,0,0,.13.69A.59.59,0,0,0,86,37a.59.59,0,0,0,.46-.23,1.08,1.08,0,0,0,.19-.7,1.22,1.22,0,0,0-.18-.74.59.59,0,0,0-.48-.22.57.57,0,0,0-.46.22A1,1,0,0,0,85.37,36Zm2.09,1.54h-.72v-.43a1.29,1.29,0,0,1-.43.38,1.07,1.07,0,0,1-.5.13,1.11,1.11,0,0,1-.88-.42,2,2,0,0,1,0-2.3,1.14,1.14,0,0,1,.9-.39,1.12,1.12,0,0,1,.86.41V33.41h.78Zm-4.15-1.73a.74.74,0,0,0-.17-.52.54.54,0,0,0-.41-.18.52.52,0,0,0-.42.19.73.73,0,0,0-.17.51Zm0,.79.78.14a1.33,1.33,0,0,1-.47.65,1.42,1.42,0,0,1-.82.23,1.34,1.34,0,0,1-1.15-.51,1.74,1.74,0,0,1-.29-1,1.6,1.6,0,0,1,.39-1.15,1.25,1.25,0,0,1,1-.42,1.31,1.31,0,0,1,1,.44,1.92,1.92,0,0,1,.36,1.34h-2a.77.77,0,0,0,.19.54.59.59,0,0,0,.45.2.52.52,0,0,0,.31-.1A.66.66,0,0,0,83.27,36.57Zm-3.2.94h-.78v-3H80V35a1.26,1.26,0,0,1,.34-.39.64.64,0,0,1,.34-.09,1.1,1.1,0,0,1,.52.14l-.24.69a.69.69,0,0,0-.37-.13.43.43,0,0,0-.28.09.57.57,0,0,0-.18.33,4.22,4.22,0,0,0-.07,1Zm-1.35-2.09-.77.14a.62.62,0,0,0-.18-.35.52.52,0,0,0-.36-.11.59.59,0,0,0-.47.2,1.07,1.07,0,0,0-.17.68,1.21,1.21,0,0,0,.18.75.6.6,0,0,0,.84.09.82.82,0,0,0,.2-.44l.77.13a1.38,1.38,0,0,1-.46.81,1.43,1.43,0,0,1-.91.27,1.37,1.37,0,0,1-1-.41A1.61,1.61,0,0,1,76,36a1.59,1.59,0,0,1,.39-1.15,1.36,1.36,0,0,1,1.05-.41,1.39,1.39,0,0,1,.86.23A1.25,1.25,0,0,1,78.72,35.42Zm-3.18,0-.78.14a.49.49,0,0,0-.54-.46.55.55,0,0,0-.46.2,1,1,0,0,0-.18.68,1.21,1.21,0,0,0,.18.75.6.6,0,0,0,.47.22.55.55,0,0,0,.37-.13.75.75,0,0,0,.2-.44l.78.13a1.4,1.4,0,0,1-.47.81,1.41,1.41,0,0,1-.91.27,1.39,1.39,0,0,1-1-.41A1.61,1.61,0,0,1,72.77,36a1.59,1.59,0,0,1,.39-1.15,1.36,1.36,0,0,1,1-.41,1.44,1.44,0,0,1,.87.23A1.36,1.36,0,0,1,75.54,35.42ZM71,35.89l-.57-1.52-.55,1.52Zm1.52,1.62h-.9l-.35-.93H69.61l-.34.93h-.88l1.6-4.1h.87Z"/><text class="cls-5" transform="translate(88.2 29.74) scale(1.03 1)">Deemed to be University</text><path class="cls-6" d="M.55,33l1.24-.33c-.07-.46-.13-.93-.18-1.4H.32c0-.54-.07-1.1-.07-1.66s0-1.11.07-1.66H1.61c0-.47.11-.94.18-1.4L.55,26.25A18.4,18.4,0,0,1,1.41,23l1.24.34c.17-.45.35-.88.54-1.3l-1.11-.65a19.57,19.57,0,0,1,1.66-2.88l1.12.65c.27-.39.56-.76.86-1.12l-.92-.91A20.23,20.23,0,0,1,7.16,14.8l.91.92c.36-.3.73-.59,1.12-.86l-.65-1.12a19.57,19.57,0,0,1,2.88-1.66l.65,1.11c.42-.19.85-.37,1.3-.54L13,11.41a18.4,18.4,0,0,1,3.22-.86l.33,1.24c.46-.07.93-.13,1.4-.18V10.32c.55,0,1.1-.07,1.66-.07s1.12,0,1.66.07v1.29c.47.05.94.11,1.4.18L23,10.55a18.17,18.17,0,0,1,3.22.86l-.34,1.24c.45.17.88.35,1.3.54l.65-1.11a19.57,19.57,0,0,1,2.88,1.66l-.65,1.12c.39.27.76.56,1.12.86l.91-.91a19.4,19.4,0,0,1,2.36,2.35l-.92.91c.3.36.59.73.86,1.12l1.12-.65a19.57,19.57,0,0,1,1.66,2.88l-1.11.65c.19.42.37.85.54,1.3L37.87,23a18.4,18.4,0,0,1,.86,3.22l-1.24.33c.07.46.13.93.18,1.4H39c0,.55.07,1.1.07,1.66s0,1.12-.07,1.66H37.67c-.05.47-.11.94-.18,1.4l1.24.33a18.4,18.4,0,0,1-.86,3.22l-1.24-.34c-.17.45-.35.88-.54,1.3l1.11.65a19.57,19.57,0,0,1-1.66,2.88l-1.12-.65c-.27.39-.56.76-.86,1.12l.92.91a20.23,20.23,0,0,1-2.36,2.36l-.91-.92c-.36.3-.73.59-1.11.86l.64,1.12a19.57,19.57,0,0,1-2.88,1.66l-.65-1.11c-.42.19-.85.37-1.3.54l.34,1.24a18.17,18.17,0,0,1-3.22.86l-.33-1.24c-.46.07-.93.13-1.4.18V49c-.54,0-1.1.07-1.66.07S18.53,49,18,49V47.67c-.47-.05-.94-.11-1.4-.18l-.33,1.24A18.4,18.4,0,0,1,13,47.87l.34-1.24c-.45-.17-.88-.35-1.3-.54l-.65,1.11a19.57,19.57,0,0,1-2.88-1.66l.65-1.12c-.39-.27-.76-.56-1.12-.86l-.91.92A20.23,20.23,0,0,1,4.8,42.12l.92-.91c-.3-.36-.59-.73-.86-1.12l-1.12.65a19.57,19.57,0,0,1-1.66-2.88l1.11-.65c-.19-.42-.37-.85-.54-1.3l-1.24.34A18.17,18.17,0,0,1,.55,33Z"/><path class="cls-7" d="M.55,33l1.24-.33c-.07-.46-.13-.93-.18-1.4H.32c0-.54-.07-1.1-.07-1.66s0-1.11.07-1.66H1.61c0-.47.11-.94.18-1.4L.55,26.25A18.4,18.4,0,0,1,1.41,23l1.24.34c.17-.45.35-.88.54-1.3l-1.11-.65a19.57,19.57,0,0,1,1.66-2.88l1.12.65c.27-.39.56-.76.86-1.12l-.92-.91A20.23,20.23,0,0,1,7.16,14.8l.91.92c.36-.3.73-.59,1.12-.86l-.65-1.12a19.57,19.57,0,0,1,2.88-1.66l.65,1.11c.42-.19.85-.37,1.3-.54L13,11.41a18.4,18.4,0,0,1,3.22-.86l.33,1.24c.46-.07.93-.13,1.4-.18V10.32c.55,0,1.1-.07,1.66-.07s1.12,0,1.66.07v1.29c.47.05.94.11,1.4.18L23,10.55a18.17,18.17,0,0,1,3.22.86l-.34,1.24c.45.17.88.35,1.3.54l.65-1.11a19.57,19.57,0,0,1,2.88,1.66l-.65,1.12c.39.27.76.56,1.12.86l.91-.91a19.4,19.4,0,0,1,2.36,2.35l-.92.91c.3.36.59.73.86,1.12l1.12-.65a19.57,19.57,0,0,1,1.66,2.88l-1.11.65c.19.42.37.85.54,1.3L37.87,23a18.4,18.4,0,0,1,.86,3.22l-1.24.33c.07.46.13.93.18,1.4H39c0,.55.07,1.1.07,1.66s0,1.12-.07,1.66H37.67c-.05.47-.11.94-.18,1.4l1.24.33a18.4,18.4,0,0,1-.86,3.22l-1.24-.34c-.17.45-.35.88-.54,1.3l1.11.65a19.57,19.57,0,0,1-1.66,2.88l-1.12-.65c-.27.39-.56.76-.86,1.12l.92.91a20.23,20.23,0,0,1-2.36,2.36l-.91-.92c-.36.3-.73.59-1.11.86l.64,1.12a19.57,19.57,0,0,1-2.88,1.66l-.65-1.11c-.42.19-.85.37-1.3.54l.34,1.24a18.17,18.17,0,0,1-3.22.86l-.33-1.24c-.46.07-.93.13-1.4.18V49c-.54,0-1.1.07-1.66.07S18.53,49,18,49V47.67c-.47-.05-.94-.11-1.4-.18l-.33,1.24A18.4,18.4,0,0,1,13,47.87l.34-1.24c-.45-.17-.88-.35-1.3-.54l-.65,1.11a19.57,19.57,0,0,1-2.88-1.66l.65-1.12c-.39-.27-.76-.56-1.12-.86l-.91.92A20.23,20.23,0,0,1,4.8,42.12l.92-.91c-.3-.36-.59-.73-.86-1.12l-1.12.65a19.57,19.57,0,0,1-1.66-2.88l1.11-.65c-.19-.42-.37-.85-.54-1.3l-1.24.34A18.17,18.17,0,0,1,.55,33Z"/><path class="cls-8" d="M.55,33l1.24-.33c-.07-.46-.13-.93-.18-1.4H.32c0-.54-.07-1.1-.07-1.66s0-.81,0-1.22l.21-.21,1.66.12H36.88l1.92-.18.19.27c0,.41,0,.81,0,1.22s0,1.12-.07,1.66H37.67c-.05.47-.11.94-.18,1.4l1.24.33a18.4,18.4,0,0,1-.86,3.22l-1.24-.34c-.17.45-.35.88-.54,1.3l1.11.65a19.57,19.57,0,0,1-1.66,2.88l-1.12-.65c-.27.39-.56.76-.86,1.12l.92.91a20.23,20.23,0,0,1-2.36,2.36l-.91-.92c-.36.3-.73.59-1.11.86l.64,1.12a19.57,19.57,0,0,1-2.88,1.66l-.65-1.11c-.42.19-.85.37-1.3.54l.34,1.24a18.17,18.17,0,0,1-3.22.86l-.33-1.24c-.46.07-.93.13-1.4.18V49c-.54,0-1.1.07-1.66.07S18.53,49,18,49V47.67c-.47-.05-.94-.11-1.4-.18l-.33,1.24A18.4,18.4,0,0,1,13,47.87l.34-1.24c-.45-.17-.88-.35-1.3-.54l-.65,1.11a19.57,19.57,0,0,1-2.88-1.66l.65-1.12c-.39-.27-.76-.56-1.12-.86l-.91.92A20.23,20.23,0,0,1,4.8,42.12l.92-.91c-.3-.36-.59-.73-.86-1.12l-1.12.65a19.57,19.57,0,0,1-1.66-2.88l1.11-.65c-.19-.42-.37-.85-.54-1.3l-1.24.34A18.17,18.17,0,0,1,.55,33Z"/><path class="cls-9" d="M.55,33l1.24-.33c-.07-.46-.13-.93-.18-1.4H.32c0-.54-.07-1.1-.07-1.66s0-.81,0-1.22l.21-.21,1.66.12H36.88l1.92-.18.19.27c0,.41,0,.81,0,1.22s0,1.12-.07,1.66H37.67c-.05.47-.11.94-.18,1.4l1.24.33a18.4,18.4,0,0,1-.86,3.22l-1.24-.34c-.17.45-.35.88-.54,1.3l1.11.65a19.57,19.57,0,0,1-1.66,2.88l-1.12-.65c-.27.39-.56.76-.86,1.12l.92.91a20.23,20.23,0,0,1-2.36,2.36l-.91-.92c-.36.3-.73.59-1.11.86l.64,1.12a19.57,19.57,0,0,1-2.88,1.66l-.65-1.11c-.42.19-.85.37-1.3.54l.34,1.24a18.17,18.17,0,0,1-3.22.86l-.33-1.24c-.46.07-.93.13-1.4.18V49c-.54,0-1.1.07-1.66.07S18.53,49,18,49V47.67c-.47-.05-.94-.11-1.4-.18l-.33,1.24A18.4,18.4,0,0,1,13,47.87l.34-1.24c-.45-.17-.88-.35-1.3-.54l-.65,1.11a19.57,19.57,0,0,1-2.88-1.66l.65-1.12c-.39-.27-.76-.56-1.12-.86l-.91.92A20.23,20.23,0,0,1,4.8,42.12l.92-.91c-.3-.36-.59-.73-.86-1.12l-1.12.65a19.57,19.57,0,0,1-1.66-2.88l1.11-.65c-.19-.42-.37-.85-.54-1.3l-1.24.34A18.17,18.17,0,0,1,.55,33Z"/><path class="cls-6" d="M19.64,12A17.67,17.67,0,0,1,37.27,28.41H32.44a12.86,12.86,0,0,0-25.6,0H2A17.68,17.68,0,0,1,19.64,12"/><path class="cls-6" d="M19.64,16.67a13,13,0,1,1-13,13A13,13,0,0,1,19.64,16.67Z"/><path class="cls-7" d="M19.64,16.67a13,13,0,1,1-13,13A13,13,0,0,1,19.64,16.67Z"/><path class="cls-4" d="M20,17.34c-.59,4.34-11.85,6.57-10.35,15.27a4.32,4.32,0,0,0,1,2c2.25,2.92,4.68,3.79,9,4.73C31.35,37.27,31.51,28.77,27,27.91c-3-.35-5.55.18-7.54,2,4.26-3,9.23-1.05,7.35,3.4-.78,1.64-4.16,3.91-7.11,4.54C12.79,36.25,9,31.33,14.41,25.5c4.2-4,5.7-5.91,5.63-8.16"/><path class="cls-10" d="M19.79,20.43c-2.16,4.6-9.6,6.91-6.9,12.72a11.38,11.38,0,0,0,6.74,4.26C30,34.24,27.33,27,21.83,29.08c4.57-.55,4.69,4.86-2.22,7.05-4.28-1-6.49-3.52-5.14-7s4.35-4.32,5.32-8.71"/><path class="cls-10" d="M14.41,30.94c1.81-3.09,7.15-2.59,5.57-10.57.13,6.53-5.46,7.2-5.57,10.57"/><rect class="cls-2" x="17.34" y="39.76" width="4.48" height="0.93"/><rect class="cls-2" x="18.01" y="41.01" width="3.15" height="0.93"/><path class="cls-10" d="M20.32,19.27c1.81,3.25,2.22,6.4-1.6,9.26a9.33,9.33,0,0,0,1.6-9.26"/><path class="cls-3" d="M34.84,26.53l-.61.15-.08-.33.61-.15,1-.75.09.36-.65.47.79.11.09.36Zm.86-1.08-.29.09-.09-.31L34,25.62l-.1-.33,1.37-.39-.09-.31.3-.09Zm-2.11-.95,1.64-.57.11.32-1.64.57Zm-.05-.19-.33-.81,1.6-.65.13.31-1.32.53.2.51ZM33,22.25l-.39.05-.16-.3,1.84-.22.14.25-1.22,1.4L33,23.11l.26-.29Zm.53.32.39-.44-.59.08ZM32.4,22l-.51-.78,1.45-.94.51.78-.25.16-.33-.5-.33.22.33.5-.26.16-.32-.5-.36.23.33.5Zm-1.15-1.6L31,20.1,32.38,19l.25.32a1.83,1.83,0,0,1,.18.24,1,1,0,0,1,.07.15.57.57,0,0,1,0,.29.49.49,0,0,1-.18.25.52.52,0,0,1-.33.12.43.43,0,0,1-.33-.12l-.25.76-.25-.31.34-.85Zm.69-.56,0,.06a.57.57,0,0,0,.26.2.25.25,0,0,0,.23-.06.22.22,0,0,0,.1-.19.43.43,0,0,0-.12-.26l-.08-.1Zm-2.2-2.27a1,1,0,0,1,.21-.17.77.77,0,0,1,.25-.1.89.89,0,0,1,.43,0,1,1,0,0,1,.38.21.77.77,0,0,1,.19.28.73.73,0,0,1,.08.33.83.83,0,0,1-.05.35.79.79,0,0,1-.18.29,1,1,0,0,1-.29.21.74.74,0,0,1-.33.09.83.83,0,0,1-.35-.05.8.8,0,0,1-.3-.19.66.66,0,0,1-.21-.29.81.81,0,0,1-.08-.34.8.8,0,0,1,.07-.34A.88.88,0,0,1,29.74,17.53Zm.27.23a.49.49,0,0,0-.11.18.45.45,0,0,0,0,.2.54.54,0,0,0,0,.22.36.36,0,0,0,.12.18.51.51,0,0,0,.39.14.56.56,0,0,0,.38-.19.54.54,0,0,0,.15-.38.52.52,0,0,0-.17-.37.56.56,0,0,0-.39-.15A.53.53,0,0,0,30,17.76Zm.12-1L30,17l-.26-.2-.88,1.13-.26-.21.87-1.12-.25-.2.18-.24Zm-2.84.13L27,16.71l.92-1.46.27.17,0,1.31.59-.94.28.18-.92,1.46-.26-.16V15.92Zm-.85-.48.79-1.54.3.15-.79,1.54Zm-1.6-1.28.29.11v0a.23.23,0,0,0,0,.18.18.18,0,0,0,.12.12.25.25,0,0,0,.17,0,.21.21,0,0,0,.11-.13c0-.11,0-.21-.13-.31l0,0a.62.62,0,0,1-.22-.28.42.42,0,0,1,0-.31.51.51,0,0,1,.26-.31.48.48,0,0,1,.39,0,.42.42,0,0,1,.26.24.52.52,0,0,1,0,.39l-.28-.11h0a.17.17,0,0,0,0-.14.17.17,0,0,0-.1-.1.14.14,0,0,0-.14,0,.18.18,0,0,0-.1.11.17.17,0,0,0,0,.07.13.13,0,0,0,0,.06.47.47,0,0,0,.16.16l.09.07a.48.48,0,0,1,.18.26.45.45,0,0,1,0,.3.68.68,0,0,1-.29.35.58.58,0,0,1-.43,0,.5.5,0,0,1-.29-.28A.61.61,0,0,1,24.84,15.13Zm-1.75,0-.33-.08.45-1.67.43.12.1,1.32.75-1.1.43.12-.45,1.67-.32-.09.34-1.21-.75,1.1-.24-.07-.1-1.32Zm-1.49-.62-.18.34-.35,0L22,13.19l.29,0L22.68,15l-.36,0-.09-.38Zm.56-.26L22,13.69l-.28.53Zm-1.11.54-.93-.06L20.24,13l.93.06,0,.3-.6,0,0,.4.6,0,0,.3L20.5,14l0,.43.6,0Zm-2,0h-.34l0-1.73h.71l.16,0a.56.56,0,0,1,.21.82.58.58,0,0,1-.3.18l.44.66h-.4L19.06,14Zm0-.89h.07a.52.52,0,0,0,.31-.08.28.28,0,0,0,0-.42.51.51,0,0,0-.28-.06h-.12Zm-1.41,1-.58.07-.21-1.71.57-.07a1.19,1.19,0,0,1,.38,0,.65.65,0,0,1,.28.13.67.67,0,0,1,.21.26.89.89,0,0,1,.11.37,1,1,0,0,1,0,.43.83.83,0,0,1-.22.33.69.69,0,0,1-.2.13A1.54,1.54,0,0,1,17.65,14.89Zm0-.29a.52.52,0,0,0,.39-.19.6.6,0,0,0,.08-.44.52.52,0,0,0-.62-.5l-.22,0,.14,1.13Zm-1.68-.33v.06a.75.75,0,0,1,0,.2.59.59,0,0,1,0,.19.87.87,0,0,1-.22.45.89.89,0,0,1-.43.25.93.93,0,0,1-.37,0,.91.91,0,0,1-.34-.14.88.88,0,0,1-.24-.23,1,1,0,0,1-.14-.3.84.84,0,0,1,0-.35,1.06,1.06,0,0,1,.12-.34,1,1,0,0,1,.23-.26,1.19,1.19,0,0,1,.32-.15.94.94,0,0,1,.5,0,.82.82,0,0,1,.4.3l-.39.11a.48.48,0,0,0-.21-.09.6.6,0,0,0-.23,0,.52.52,0,0,0-.32.26.53.53,0,0,0,0,.41.52.52,0,0,0,.25.34.54.54,0,0,0,.41.06.5.5,0,0,0,.26-.16.47.47,0,0,0,.12-.27l-.65.17-.08-.28Zm-2.59,1.9-.3.14-.71-1.58.3-.13,1.1.72-.45-1,.3-.13.7,1.57-.28.13-1.12-.74Zm-.86.42-.78-1.54.3-.15.78,1.54ZM11,17.5l-.28.18L9.8,16.21l.38-.24,1,.84-.29-1.3.38-.24.91,1.47-.28.17-.66-1.07.3,1.3-.22.13-1-.83Zm-1.07.86-.26.22L8.56,17.26,8.87,17a1.67,1.67,0,0,1,.23-.18.43.43,0,0,1,.16-.07.48.48,0,0,1,.29,0,.66.66,0,0,1,.25.17.58.58,0,0,1,.13.33.52.52,0,0,1-.12.33l.77.24-.31.26-.86-.33Zm-.58-.67.06-.05a.52.52,0,0,0,.19-.26.28.28,0,0,0-.25-.33.45.45,0,0,0-.26.13L9,17.26Zm-1.7,1.72a1.18,1.18,0,0,1-.17-.22A.85.85,0,0,1,7.39,19a.89.89,0,0,1,0-.43.86.86,0,0,1,.22-.38A.92.92,0,0,1,7.91,18a.88.88,0,0,1,.33-.07,1,1,0,0,1,.35.06.94.94,0,0,1,.49.47.81.81,0,0,1,.08.34.85.85,0,0,1-.05.35,1,1,0,0,1-.19.29.75.75,0,0,1-.3.21.81.81,0,0,1-.35.07.93.93,0,0,1-.33-.07A.91.91,0,0,1,7.65,19.41Zm.24-.27a.38.38,0,0,0,.17.12.72.72,0,0,0,.21,0,.57.57,0,0,0,.22,0,.43.43,0,0,0,.17-.12.48.48,0,0,0,.15-.38.51.51,0,0,0-.18-.39.46.46,0,0,0-.38-.15.51.51,0,0,0-.37.15.52.52,0,0,0-.15.39A.47.47,0,0,0,7.89,19.14Zm-.28,1.73L6.27,19.78l.59-.72.23.19-.38.46L7,20l.38-.46.23.19-.38.46.57.46Zm-1.15.76.17-.26h0a.25.25,0,0,0,.18.05A.22.22,0,0,0,7,21.34a.21.21,0,0,0,0-.17A.26.26,0,0,0,6.9,21c-.1-.06-.21,0-.34.07l0,0a.64.64,0,0,1-.32.16.49.49,0,0,1-.3-.08.57.57,0,0,1-.25-.33.49.49,0,0,1,.07-.38A.53.53,0,0,1,6,20.29a.59.59,0,0,1,.39.09l-.17.25h0a.18.18,0,0,0-.14,0s-.08,0-.11.08a.17.17,0,0,0,0,.14.19.19,0,0,0,.09.11.09.09,0,0,0,.06,0h.06a.34.34,0,0,0,.2-.12l.09-.07a.54.54,0,0,1,.29-.13.44.44,0,0,1,.28.09.55.55,0,0,1,.28.36.47.47,0,0,1-.08.41.46.46,0,0,1-.33.23A.59.59,0,0,1,6.46,21.63ZM6.31,23l-.16.29-1.52-.81.15-.28,1.31-.11-1-.52.16-.29,1.52.81-.14.28-1.34.1Zm-.95,1.28.28.26-.13.33L4.16,23.59l.11-.27,1.85,0L6,23.69H5.6Zm-.1-.61-.59,0,.44.4Zm0,2L5.2,26l-1.66-.48.11-.39a2,2,0,0,1,.1-.28.34.34,0,0,1,.09-.14.47.47,0,0,1,.24-.16.51.51,0,0,1,.3,0,.59.59,0,0,1,.3.2.45.45,0,0,1,.08.34l.77-.23-.11.39-.9.2Zm-.85-.25,0-.07a.61.61,0,0,0,0-.32.24.24,0,0,0-.18-.16.21.21,0,0,0-.22,0,.39.39,0,0,0-.14.25l0,.12Zm-1,.34.29.07-.07.31,1.39.32L5,26.77l-1.39-.32-.07.32-.29-.07Z"/><path class="cls-11" d="M33.37,38l-1-.26.68.77Zm.6.16-.5.82.31.35-.46.73L31.54,37.7l.49-.79,2.86.57-.46.76Zm-3.56,2.68.24-.26a1.13,1.13,0,0,0,.13-.19.2.2,0,0,0,0-.15.21.21,0,0,0-.07-.15.27.27,0,0,0-.21-.08q-.11,0-.27.18L30,40.4ZM31,42.53l-2-1.9,1-1a2,2,0,0,1,.47-.39.63.63,0,0,1,.41-.07.87.87,0,0,1,.41.22.77.77,0,0,1,.21.34.7.7,0,0,1,0,.38,1,1,0,0,1-.13.29.88.88,0,0,1,.23-.09h.19a.7.7,0,0,1,.21,0l.85.25-.66.69L31.28,41A.69.69,0,0,0,31,41a.35.35,0,0,0-.19.1l0,.06.8.77Zm-4.36-.27L28.52,41l.32.48-1.19.78.24.36,1.1-.71.3.46-1.09.72.29.45,1.22-.8.34.52-1.93,1.26ZM24.92,44.8l.78,0a1.4,1.4,0,0,1-.09.56,1.12,1.12,0,0,1-.3.41,1.62,1.62,0,0,1-.56.27,2,2,0,0,1-.73.07,1.24,1.24,0,0,1-.6-.31,1.7,1.7,0,0,1-.42-.75,1.45,1.45,0,0,1,.07-1.1,1.41,1.41,0,0,1,.89-.63,1.34,1.34,0,0,1,.84,0,1.17,1.17,0,0,1,.59.5l-.67.36a.58.58,0,0,0-.13-.16.4.4,0,0,0-.2-.09.39.39,0,0,0-.24,0,.48.48,0,0,0-.36.34.89.89,0,0,0,0,.55,1,1,0,0,0,.3.56.5.5,0,0,0,.42.06.48.48,0,0,0,.31-.23A.8.8,0,0,0,24.92,44.8ZM21,44l.85-.1.31,2.72-.84.09Zm-3.41-.06.84.07-.07,1,.92.07.07-1,.85.06L20,46.86l-.85-.07.09-1.1-.93-.07-.08,1.1-.84-.06Zm-2.41.64.2.06a.54.54,0,0,0,.36,0,.34.34,0,0,0,.15-.18.33.33,0,0,0,0-.24.46.46,0,0,0-.29-.17L15.31,44Zm-.53-1.34,1.36.35a1,1,0,0,1,.61.39.82.82,0,0,1,.07.66.84.84,0,0,1-.41.56,1.09,1.09,0,0,1-.79,0L15,45.11l-.26,1-.82-.21ZM12.4,44l.17-1-.7.74Zm-.1.61-.86-.43-.32.34-.78-.38,2.15-2,.83.42L13,45.5l-.79-.4ZM9.42,41.32l.26.24a.92.92,0,0,0,.2.12.2.2,0,0,0,.15,0,.24.24,0,0,0,.15-.09.23.23,0,0,0,.07-.2.52.52,0,0,0-.18-.27l-.28-.24ZM7.7,42l1.82-2,1.06.94a2.43,2.43,0,0,1,.4.44.66.66,0,0,1,.08.41.82.82,0,0,1-.2.42.73.73,0,0,1-.71.25,1.33,1.33,0,0,1-.3-.12.66.66,0,0,1,.1.22.65.65,0,0,1,0,.2,1.06,1.06,0,0,1,0,.21l-.22.86L9,43.12l.22-.92a.63.63,0,0,0,0-.26.34.34,0,0,0-.11-.18l-.06,0-.73.82Zm-.91-2.55.44-.35.82,1-.9.73a2.51,2.51,0,0,1-.69-.29A2.22,2.22,0,0,1,6,40a1.65,1.65,0,0,1-.37-.72,1.15,1.15,0,0,1,.09-.68,1.52,1.52,0,0,1,.48-.6,1.51,1.51,0,0,1,.72-.35,1.17,1.17,0,0,1,.73.11,1.6,1.6,0,0,1,.57.5,1.87,1.87,0,0,1,.36.58.78.78,0,0,1,0,.45,1.31,1.31,0,0,1-.2.44l-.63-.54A.42.42,0,0,0,7.83,39a.47.47,0,0,0-.13-.29.53.53,0,0,0-.42-.23.92.92,0,0,0-.58.26.94.94,0,0,0-.39.53.6.6,0,0,0,.14.48,1.12,1.12,0,0,0,.2.18A1.4,1.4,0,0,0,7,40l.2-.16Z"/><text class="cls-12" transform="translate(48.53 50.03)">Approved by </text><text class="cls-12" transform="translate(77.94 50.03)">AICTE, Ministry of HRD, Govt. of India</text><text class="cls-13" transform="translate(57.58 44.12)">NBA</text><text class="cls-13" transform="translate(68.22 44.12)"> </text><text class="cls-13" transform="translate(69.42 44.12)">Accredited Program in CSE, ECE &amp; ME </text></svg>